<svg xmlns="http://www.w3.org/2000/svg" viewBox="0 0 2304 1536"><defs><style>.cls-1{fill:#eec900;}</style></defs><title>Asset 1</title><g id="Layer_2" data-name="Layer 2"><g id="Layer_1-2" data-name="Layer 1"><path class="cls-1" d="M1774,708l18,316q4,69-82,128t-235,93.5q-149,34.5-323,34.5t-323-34.5Q680,1211,594,1152t-82-128l18-316,574,181a168.07,168.07,0,0,0,96,0Zm530-324q0,23-22,31L1162,767a50.5,50.5,0,0,1-20,0L490,561q-43,34-71,111.5T385,851q63,36,63,109,0,69-58,107l58,433q2,14-8,25-9,11-24,11H224q-15,0-24-11-10-11-8-25l58-433q-58-38-58-107,0-73,65-111,11-207,98-330L22,415Q0,407,0,384t22-31L1142,1a50.5,50.5,0,0,1,20,0L2282,353Q2304,361,2304,384Z"/></g></g></svg>